<svg xmlns="http://www.w3.org/2000/svg" viewBox="0 0 187.8 61.75"><defs><style>.cls-1{fill:#619629;}.cls-2{fill:#4c4c4c;}</style></defs><title>Resurs 1</title><g id="Lager_2" data-name="Lager 2"><g id="Lager_1-2" data-name="Lager 1"><path class="cls-1" d="M158.91,33.35l15.94,27.3a2.2,2.2,0,0,0,1.91,1.1h7a2.22,2.22,0,0,0,1.89-3.38l-11.11-18a2.21,2.21,0,0,1,1-3.19C183,34,187.85,27,187.8,19.51c-.07-10-8.94-18.93-20.3-19H157.07A2.21,2.21,0,0,0,155,2L139.42,43.56a2.22,2.22,0,0,1-4.15,0L119.7,2A2.22,2.22,0,0,0,117.62.55h-7.4a2.21,2.21,0,0,0-2.06,3l20.6,52.18a7.72,7.72,0,0,0,7.18,4.88h2.58a7.72,7.72,0,0,0,7.18-4.89l17-43.36A2.24,2.24,0,0,1,164.82,11c8.6,0,11.78,4.19,11.78,9.75,0,3.95-3.15,9-15.84,9.29A2.21,2.21,0,0,0,158.91,33.35Z"/><g id="GRA"><path class="cls-2" d="M51.61,36.07c0,1.45.06,2.48-.55,3.26s-1.69,1.27-3.32,1.27-2.77-.42-3.38-1.27-.6-1.81-.6-3.26V6.2c0-2,0-3.81,3.2-4.71a26.34,26.34,0,0,1,7-.73c3.2,0,6.76.3,9.78,1.81a10.46,10.46,0,0,1,6,10A11.38,11.38,0,0,1,63,23.34l9.53,13c1.39,1.93.79,4.28-3.38,4.28C66,40.6,65,39.27,63.5,37.1L58,29a34,34,0,0,1-2.29-3.86s-.78.06-2.05.06-2-.06-2-.06Zm0-17.32s.84.06,1.81.06c5.13,0,8.09-1.69,8.09-5.79s-3.08-5.44-6.88-5.44a18.75,18.75,0,0,0-3,.24Z"/><path class="cls-2" d="M102.31,30h-14l-2.53,6.7c-1,2.47-1.87,3.86-5,3.86-2.6,0-3.56-1-3.56-2.41a6.23,6.23,0,0,1,.6-2.3l12.86-31c1.09-2.66,2-4.29,5-4.29s3.8,1.69,4.89,4.35l12.37,31a6.58,6.58,0,0,1,.49,2.18c0,1.57-1.33,2.47-3.87,2.47-2.84,0-3.74-1.15-4.77-3.86ZM90.84,23.4h9L95.37,11.63Z"/><path class="cls-2" d="M34.17,23.21a4,4,0,0,0-3.39-1.27H21.55a1.76,1.76,0,0,0-1.77,1.76v2.68a1.77,1.77,0,0,0,1.77,1.77h5.07v4a15,15,0,0,1-5.79,1.09C14,33.26,8.33,29,8.33,20c0-9.3,6.16-12.8,12.25-12.8a16.66,16.66,0,0,1,6.28,1.27c1.81.73,3,1.51,4.17,1.51,2.11,0,3.26-2.6,3.26-4.23s-1-2.53-2.84-3.5A23.37,23.37,0,0,0,21,0C10.62,0,0,5.79,0,20.16,0,33.62,9.3,40.44,20.77,40.44A28.42,28.42,0,0,0,31,38.57c3.26-1.27,3.8-2.47,3.8-4.89V26.34C34.77,25,34.77,24,34.17,23.21Z"/></g></g></g></svg>